<svg width="24" height="24" viewBox="0 0 24 24" fill="none" xmlns="http://www.w3.org/2000/svg">
<g clip-path="url(#clip0_222_224)">
<path d="M7.4684 16.2229L4.88518 5.72526C4.67358 4.86561 5.19451 3.99623 6.05219 3.77733L6.24832 3.72714C7.07681 3.51554 7.93339 3.92658 8.29335 4.70221C8.84546 5.89087 9.60784 8.13419 10.3704 12.3113H10.9382L13.6628 4.62836C13.915 3.91751 14.6221 3.47331 15.3717 3.55468L15.5504 3.57414C16.4089 3.66744 17.0342 4.44684 16.9166 5.30251C16.7238 6.70431 16.154 9.03276 14.5421 12.245C14.434 12.4599 14.5954 12.7097 14.8357 12.6989C15.7628 12.6564 17.4923 12.8099 17.1052 14.611C17.0685 14.7824 17.1941 14.9489 17.3694 14.9526C18.159 14.9694 19.8909 15.2235 18.8245 17.2322L16.4131 19.9697C16.1412 20.2784 15.75 20.455 15.3387 20.455H15.3312C14.8437 20.455 14.399 20.1769 14.1857 19.7384L14.1047 19.5717C13.986 19.3278 13.6873 19.2246 13.4489 19.3537C12.762 19.7256 11.5036 20.1687 11.7442 18.2475C11.7807 17.9574 12.0142 17.7277 12.3043 17.6921C13.3094 17.5678 15.5632 17.1283 15.4588 15.6851C15.4038 14.9234 14.7212 14.3567 13.9581 14.3267L11.2768 14.2205C9.90987 14.1666 8.58411 14.7525 7.74588 15.8333C7.65191 15.9544 7.55905 16.084 7.4684 16.2229Z" fill="white"/>
<path d="M12.0002 1.39888C6.15443 1.39888 1.39868 6.15454 1.39868 12.0004C1.39868 17.8459 6.15443 22.6011 12.0002 22.6011C17.846 22.6011 22.6015 17.8459 22.6015 12.0004C22.6015 6.15454 17.846 1.39888 12.0002 1.39888ZM12.0002 23C5.93472 23 1 18.0656 1 12.0004C1 5.93483 5.93472 0.999999 12.0002 0.999999C18.0657 0.999999 23 5.93483 23 12.0004C23 18.0656 18.0657 23 12.0002 23Z" fill="white" stroke="white"/>
</g>
<defs>
<clipPath id="clip0_222_224">
<rect width="24" height="24" fill="white"/>
</clipPath>
</defs>
</svg>
